<svg id="visual" viewBox="0 0 900 200" width="900" height="200" xmlns="http://www.w3.org/2000/svg" xmlns:xlink="http://www.w3.org/1999/xlink" version="1.1"><rect x="0" y="0" width="900" height="200" fill="#0f172a"></rect><path d="M0 60L25 69C50 78 100 96 150 108.8C200 121.7 250 129.3 300 125.7C350 122 400 107 450 93.8C500 80.7 550 69.3 600 64.3C650 59.3 700 60.7 750 74.2C800 87.7 850 113.3 875 126.2L900 139L900 0L875 0C850 0 800 0 750 0C700 0 650 0 600 0C550 0 500 0 450 0C400 0 350 0 300 0C250 0 200 0 150 0C100 0 50 0 25 0L0 0Z" fill="#9f1239" stroke-linecap="round" stroke-linejoin="miter"></path></svg>