<svg id="visual" viewBox="0 0 900 200" width="900" height="200" xmlns="http://www.w3.org/2000/svg" xmlns:xlink="http://www.w3.org/1999/xlink" version="1.1"><rect x="0" y="0" width="900" height="200" fill="#0f172a"></rect><path d="M0 78L25 86.8C50 95.7 100 113.3 150 110.3C200 107.3 250 83.7 300 87.5C350 91.3 400 122.7 450 129C500 135.3 550 116.7 600 101.8C650 87 700 76 750 83.2C800 90.3 850 115.7 875 128.3L900 141L900 201L875 201C850 201 800 201 750 201C700 201 650 201 600 201C550 201 500 201 450 201C400 201 350 201 300 201C250 201 200 201 150 201C100 201 50 201 25 201L0 201Z" fill="#9f1239" stroke-linecap="round" stroke-linejoin="miter"></path></svg>